<?xml version="1.0" encoding="UTF-8" standalone="no"?>
<svg
   xmlns:dc="http://purl.org/dc/elements/1.1/"
   xmlns:cc="http://creativecommons.org/ns#"
   xmlns:rdf="http://www.w3.org/1999/02/22-rdf-syntax-ns#"
   xmlns:svg="http://www.w3.org/2000/svg"
   xmlns="http://www.w3.org/2000/svg"
   viewBox="0 0 881.25 772.5"
   height="772.5"
   width="881.25"
   xml:space="preserve"
   version="1.1"
   id="svg2"><metadata
     id="metadata8"><rdf:RDF><cc:Work
         rdf:about=""><dc:format>image/svg+xml</dc:format><dc:type
           rdf:resource="http://purl.org/dc/dcmitype/StillImage" /></cc:Work></rdf:RDF></metadata><defs
     id="defs6" /><g
     transform="matrix(1.25,0,0,-1.25,0,772.5)"
     id="g10"><g
       id="g12" /><g
       id="g14"><g
         transform="matrix(0.125,0,0,-0.125,0.0625,617.9375)"
         id="g16"><path
           id="path18"
           style="fill:none;stroke:#000000;stroke-width:24;stroke-linecap:butt;stroke-linejoin:miter;stroke-miterlimit:10;stroke-dasharray:none;stroke-opacity:1"
           d="m 655.5,200 0,4157.4" /></g><g
         transform="matrix(0.125,0,0,-0.125,0.0625,617.9375)"
         id="g20"><path
           id="path22"
           style="fill:none;stroke:#000000;stroke-width:24;stroke-linecap:butt;stroke-linejoin:miter;stroke-miterlimit:10;stroke-dasharray:none;stroke-opacity:1"
           d="m 5223.5,200 0,4157.4" /></g><g
         transform="matrix(0.125,0,0,-0.125,0.0625,617.9375)"
         id="g24"><path
           id="path26"
           style="fill:none;stroke:#000000;stroke-width:24;stroke-linecap:butt;stroke-linejoin:miter;stroke-miterlimit:10;stroke-dasharray:none;stroke-opacity:1"
           d="m 644,4317.5 73.4,0" /></g><g
         transform="matrix(0.125,0,0,-0.125,0.0625,617.9375)"
         id="g28"><path
           id="path30"
           style="fill:none;stroke:#000000;stroke-width:24;stroke-linecap:butt;stroke-linejoin:miter;stroke-miterlimit:10;stroke-dasharray:none;stroke-opacity:1"
           d="m 644,4256.5 123.4,0" /></g><g
         transform="matrix(0.125,0,0,0.125,14.3125,77.8125)"
         id="g32"><text
           id="text34"
           style="font-variant:normal;font-weight:normal;font-size:192px;font-family:Geneva;-inkscape-font-specification:Geneva;writing-mode:lr-tb;fill:#000000;fill-opacity:1;fill-rule:nonzero;stroke:#000000;stroke-width:4.6079998;stroke-linecap:butt;stroke-linejoin:miter;stroke-miterlimit:10;stroke-dasharray:none;stroke-opacity:1"
           transform="scale(1,-1)"><tspan
             id="tspan36"
             y="0"
             x="0 127.968 186.24001 314.20801">0.01</tspan></text>
</g><g
         transform="matrix(0.125,0,0,-0.125,0.0625,617.9375)"
         id="g38"><path
           id="path40"
           style="fill:none;stroke:#000000;stroke-width:24;stroke-linecap:butt;stroke-linejoin:miter;stroke-miterlimit:10;stroke-dasharray:none;stroke-opacity:1"
           d="m 644,3853.5 73.4,0" /></g><g
         transform="matrix(0.125,0,0,-0.125,0.0625,617.9375)"
         id="g42"><path
           id="path44"
           style="fill:none;stroke:#000000;stroke-width:24;stroke-linecap:butt;stroke-linejoin:miter;stroke-miterlimit:10;stroke-dasharray:none;stroke-opacity:1"
           d="m 644,3617.5 73.4,0" /></g><g
         transform="matrix(0.125,0,0,-0.125,0.0625,617.9375)"
         id="g46"><path
           id="path48"
           style="fill:none;stroke:#000000;stroke-width:24;stroke-linecap:butt;stroke-linejoin:miter;stroke-miterlimit:10;stroke-dasharray:none;stroke-opacity:1"
           d="m 644,3450.5 73.4,0" /></g><g
         transform="matrix(0.125,0,0,-0.125,0.0625,617.9375)"
         id="g50"><path
           id="path52"
           style="fill:none;stroke:#000000;stroke-width:24;stroke-linecap:butt;stroke-linejoin:miter;stroke-miterlimit:10;stroke-dasharray:none;stroke-opacity:1"
           d="m 644,3320.5 73.4,0" /></g><g
         transform="matrix(0.125,0,0,-0.125,0.0625,617.9375)"
         id="g54"><path
           id="path56"
           style="fill:none;stroke:#000000;stroke-width:24;stroke-linecap:butt;stroke-linejoin:miter;stroke-miterlimit:10;stroke-dasharray:none;stroke-opacity:1"
           d="m 644,3214.5 73.4,0" /></g><g
         transform="matrix(0.125,0,0,-0.125,0.0625,617.9375)"
         id="g58"><path
           id="path60"
           style="fill:none;stroke:#000000;stroke-width:24;stroke-linecap:butt;stroke-linejoin:miter;stroke-miterlimit:10;stroke-dasharray:none;stroke-opacity:1"
           d="m 644,3124.5 73.4,0" /></g><g
         transform="matrix(0.125,0,0,-0.125,0.0625,617.9375)"
         id="g62"><path
           id="path64"
           style="fill:none;stroke:#000000;stroke-width:24;stroke-linecap:butt;stroke-linejoin:miter;stroke-miterlimit:10;stroke-dasharray:none;stroke-opacity:1"
           d="m 644,3047.5 73.4,0" /></g><g
         transform="matrix(0.125,0,0,-0.125,0.0625,617.9375)"
         id="g66"><path
           id="path68"
           style="fill:none;stroke:#000000;stroke-width:24;stroke-linecap:butt;stroke-linejoin:miter;stroke-miterlimit:10;stroke-dasharray:none;stroke-opacity:1"
           d="m 644,2978.5 73.4,0" /></g><g
         transform="matrix(0.125,0,0,-0.125,0.0625,617.9375)"
         id="g70"><path
           id="path72"
           style="fill:none;stroke:#000000;stroke-width:24;stroke-linecap:butt;stroke-linejoin:miter;stroke-miterlimit:10;stroke-dasharray:none;stroke-opacity:1"
           d="m 644,2917.5 123.4,0" /></g><g
         transform="matrix(0.125,0,0,0.125,30.3125,245.1875)"
         id="g74"><text
           id="text76"
           style="font-variant:normal;font-weight:normal;font-size:192px;font-family:Geneva;-inkscape-font-specification:Geneva;writing-mode:lr-tb;fill:#000000;fill-opacity:1;fill-rule:nonzero;stroke:#000000;stroke-width:4.6079998;stroke-linecap:butt;stroke-linejoin:miter;stroke-miterlimit:10;stroke-dasharray:none;stroke-opacity:1"
           transform="scale(1,-1)"><tspan
             id="tspan78"
             y="0"
             x="0 127.968 186.24001">0.1</tspan></text>
</g><g
         transform="matrix(0.125,0,0,-0.125,0.0625,617.9375)"
         id="g80"><path
           id="path82"
           style="fill:none;stroke:#000000;stroke-width:24;stroke-linecap:butt;stroke-linejoin:miter;stroke-miterlimit:10;stroke-dasharray:none;stroke-opacity:1"
           d="m 644,2514.5 73.4,0" /></g><g
         transform="matrix(0.125,0,0,-0.125,0.0625,617.9375)"
         id="g84"><path
           id="path86"
           style="fill:none;stroke:#000000;stroke-width:24;stroke-linecap:butt;stroke-linejoin:miter;stroke-miterlimit:10;stroke-dasharray:none;stroke-opacity:1"
           d="m 644,2278.5 73.4,0" /></g><g
         transform="matrix(0.125,0,0,-0.125,0.0625,617.9375)"
         id="g88"><path
           id="path90"
           style="fill:none;stroke:#000000;stroke-width:24;stroke-linecap:butt;stroke-linejoin:miter;stroke-miterlimit:10;stroke-dasharray:none;stroke-opacity:1"
           d="m 644,2111.5 73.4,0" /></g><g
         transform="matrix(0.125,0,0,-0.125,0.0625,617.9375)"
         id="g92"><path
           id="path94"
           style="fill:none;stroke:#000000;stroke-width:24;stroke-linecap:butt;stroke-linejoin:miter;stroke-miterlimit:10;stroke-dasharray:none;stroke-opacity:1"
           d="m 644,1981.5 73.4,0" /></g><g
         transform="matrix(0.125,0,0,-0.125,0.0625,617.9375)"
         id="g96"><path
           id="path98"
           style="fill:none;stroke:#000000;stroke-width:24;stroke-linecap:butt;stroke-linejoin:miter;stroke-miterlimit:10;stroke-dasharray:none;stroke-opacity:1"
           d="m 644,1875.5 73.4,0" /></g><g
         transform="matrix(0.125,0,0,-0.125,0.0625,617.9375)"
         id="g100"><path
           id="path102"
           style="fill:none;stroke:#000000;stroke-width:24;stroke-linecap:butt;stroke-linejoin:miter;stroke-miterlimit:10;stroke-dasharray:none;stroke-opacity:1"
           d="m 644,1785.5 73.4,0" /></g><g
         transform="matrix(0.125,0,0,-0.125,0.0625,617.9375)"
         id="g104"><path
           id="path106"
           style="fill:none;stroke:#000000;stroke-width:24;stroke-linecap:butt;stroke-linejoin:miter;stroke-miterlimit:10;stroke-dasharray:none;stroke-opacity:1"
           d="m 644,1708.5 73.4,0" /></g><g
         transform="matrix(0.125,0,0,-0.125,0.0625,617.9375)"
         id="g108"><path
           id="path110"
           style="fill:none;stroke:#000000;stroke-width:24;stroke-linecap:butt;stroke-linejoin:miter;stroke-miterlimit:10;stroke-dasharray:none;stroke-opacity:1"
           d="m 644,1639.5 73.4,0" /></g><g
         transform="matrix(0.125,0,0,-0.125,0.0625,617.9375)"
         id="g112"><path
           id="path114"
           style="fill:none;stroke:#000000;stroke-width:24;stroke-linecap:butt;stroke-linejoin:miter;stroke-miterlimit:10;stroke-dasharray:none;stroke-opacity:1"
           d="m 644,1578.5 123.4,0" /></g><g
         transform="matrix(0.125,0,0,0.125,53.5625,412.5625)"
         id="g116"><text
           id="text118"
           style="font-variant:normal;font-weight:normal;font-size:192px;font-family:Geneva;-inkscape-font-specification:Geneva;writing-mode:lr-tb;fill:#000000;fill-opacity:1;fill-rule:nonzero;stroke:#000000;stroke-width:4.6079998;stroke-linecap:butt;stroke-linejoin:miter;stroke-miterlimit:10;stroke-dasharray:none;stroke-opacity:1"
           transform="scale(1,-1)"><tspan
             id="tspan120"
             y="0"
             x="0">1</tspan></text>
</g><g
         transform="matrix(0.125,0,0,-0.125,0.0625,617.9375)"
         id="g122"><path
           id="path124"
           style="fill:none;stroke:#000000;stroke-width:24;stroke-linecap:butt;stroke-linejoin:miter;stroke-miterlimit:10;stroke-dasharray:none;stroke-opacity:1"
           d="m 644,1175.5 73.4,0" /></g><g
         transform="matrix(0.125,0,0,-0.125,0.0625,617.9375)"
         id="g126"><path
           id="path128"
           style="fill:none;stroke:#000000;stroke-width:24;stroke-linecap:butt;stroke-linejoin:miter;stroke-miterlimit:10;stroke-dasharray:none;stroke-opacity:1"
           d="m 644,939.5 73.4,0" /></g><g
         transform="matrix(0.125,0,0,-0.125,0.0625,617.9375)"
         id="g130"><path
           id="path132"
           style="fill:none;stroke:#000000;stroke-width:24;stroke-linecap:butt;stroke-linejoin:miter;stroke-miterlimit:10;stroke-dasharray:none;stroke-opacity:1"
           d="m 644,772.5 73.4,0" /></g><g
         transform="matrix(0.125,0,0,-0.125,0.0625,617.9375)"
         id="g134"><path
           id="path136"
           style="fill:none;stroke:#000000;stroke-width:24;stroke-linecap:butt;stroke-linejoin:miter;stroke-miterlimit:10;stroke-dasharray:none;stroke-opacity:1"
           d="m 644,642.5 73.4,0" /></g><g
         transform="matrix(0.125,0,0,-0.125,0.0625,617.9375)"
         id="g138"><path
           id="path140"
           style="fill:none;stroke:#000000;stroke-width:24;stroke-linecap:butt;stroke-linejoin:miter;stroke-miterlimit:10;stroke-dasharray:none;stroke-opacity:1"
           d="m 644,536.5 73.4,0" /></g><g
         transform="matrix(0.125,0,0,-0.125,0.0625,617.9375)"
         id="g142"><path
           id="path144"
           style="fill:none;stroke:#000000;stroke-width:24;stroke-linecap:butt;stroke-linejoin:miter;stroke-miterlimit:10;stroke-dasharray:none;stroke-opacity:1"
           d="m 644,446.5 73.4,0" /></g><g
         transform="matrix(0.125,0,0,-0.125,0.0625,617.9375)"
         id="g146"><path
           id="path148"
           style="fill:none;stroke:#000000;stroke-width:24;stroke-linecap:butt;stroke-linejoin:miter;stroke-miterlimit:10;stroke-dasharray:none;stroke-opacity:1"
           d="m 644,369.5 73.4,0" /></g><g
         transform="matrix(0.125,0,0,-0.125,0.0625,617.9375)"
         id="g150"><path
           id="path152"
           style="fill:none;stroke:#000000;stroke-width:24;stroke-linecap:butt;stroke-linejoin:miter;stroke-miterlimit:10;stroke-dasharray:none;stroke-opacity:1"
           d="m 644,300.5 73.4,0" /></g><g
         transform="matrix(0.125,0,0,-0.125,0.0625,617.9375)"
         id="g154"><path
           id="path156"
           style="fill:none;stroke:#000000;stroke-width:24;stroke-linecap:butt;stroke-linejoin:miter;stroke-miterlimit:10;stroke-dasharray:none;stroke-opacity:1"
           d="m 644,239.5 123.4,0" /></g><g
         transform="matrix(0.125,0,0,0.125,37.5625,579.9375)"
         id="g158"><text
           id="text160"
           style="font-variant:normal;font-weight:normal;font-size:192px;font-family:Geneva;-inkscape-font-specification:Geneva;writing-mode:lr-tb;fill:#000000;fill-opacity:1;fill-rule:nonzero;stroke:#000000;stroke-width:4.6079998;stroke-linecap:butt;stroke-linejoin:miter;stroke-miterlimit:10;stroke-dasharray:none;stroke-opacity:1"
           transform="scale(1,-1)"><tspan
             id="tspan162"
             y="0"
             x="0 127.968">10</tspan></text>
</g><g
         transform="matrix(1.090825e-6,0.125,-0.125,1.090825e-6,24.06196,270.6873)"
         id="g164"><text
           id="text166"
           style="font-variant:normal;font-weight:normal;font-size:192px;font-family:Geneva;-inkscape-font-specification:Geneva;writing-mode:lr-tb;fill:#000000;fill-opacity:1;fill-rule:nonzero;stroke:#000000;stroke-width:4.6079998;stroke-linecap:butt;stroke-linejoin:miter;stroke-miterlimit:10;stroke-dasharray:none;stroke-opacity:1"
           transform="scale(1,-1)"><tspan
             id="tspan168"
             y="0"
             x="0 106.2144 222.56641 296.7168 401.43359 511.96799 576 661.78558 777.38879 913.42078">Force (pN)</tspan></text>
</g><g
         transform="matrix(0.125,0,0,-0.125,0.0625,617.9375)"
         id="g170"><path
           id="path172"
           style="fill:none;stroke:#000000;stroke-width:24;stroke-linecap:butt;stroke-linejoin:miter;stroke-miterlimit:10;stroke-dasharray:none;stroke-opacity:1"
           d="m 644,4369.5 4591.4,0" /></g><g
         transform="matrix(0.125,0,0,-0.125,0.0625,617.9375)"
         id="g174"><path
           id="path176"
           style="fill:none;stroke:#000000;stroke-width:24;stroke-linecap:butt;stroke-linejoin:miter;stroke-miterlimit:10;stroke-dasharray:none;stroke-opacity:1"
           d="m 644,187.5 4591.4,0" /></g><g
         transform="matrix(0.125,0,0,-0.125,0.0625,617.9375)"
         id="g178"><path
           id="path180"
           style="fill:none;stroke:#000000;stroke-width:24;stroke-linecap:butt;stroke-linejoin:miter;stroke-miterlimit:10;stroke-dasharray:none;stroke-opacity:1"
           d="m 4883.5,4381.4 0,-123.4" /></g><g
         transform="matrix(0.125,0,0,0.125,597.3125,42.4375)"
         id="g182"><text
           id="text184"
           style="font-variant:normal;font-weight:normal;font-size:160px;font-family:Geneva;-inkscape-font-specification:Geneva;writing-mode:lr-tb;fill:#000000;fill-opacity:1;fill-rule:nonzero;stroke:#000000;stroke-width:3.83999991;stroke-linecap:butt;stroke-linejoin:miter;stroke-miterlimit:10;stroke-dasharray:none;stroke-opacity:1"
           transform="scale(1,-1)"><tspan
             id="tspan186"
             y="0"
             x="0 106.64">14</tspan></text>
</g><g
         transform="matrix(0.125,0,0,-0.125,0.0625,617.9375)"
         id="g188"><path
           id="path190"
           style="fill:none;stroke:#000000;stroke-width:24;stroke-linecap:butt;stroke-linejoin:miter;stroke-miterlimit:10;stroke-dasharray:none;stroke-opacity:1"
           d="m 4307.5,4381.4 0,-123.4" /></g><g
         transform="matrix(0.125,0,0,0.125,525.3125,42.4375)"
         id="g192"><text
           id="text194"
           style="font-variant:normal;font-weight:normal;font-size:160px;font-family:Geneva;-inkscape-font-specification:Geneva;writing-mode:lr-tb;fill:#000000;fill-opacity:1;fill-rule:nonzero;stroke:#000000;stroke-width:3.83999991;stroke-linecap:butt;stroke-linejoin:miter;stroke-miterlimit:10;stroke-dasharray:none;stroke-opacity:1"
           transform="scale(1,-1)"><tspan
             id="tspan196"
             y="0"
             x="0 106.64">12</tspan></text>
</g><g
         transform="matrix(0.125,0,0,-0.125,0.0625,617.9375)"
         id="g198"><path
           id="path200"
           style="fill:none;stroke:#000000;stroke-width:24;stroke-linecap:butt;stroke-linejoin:miter;stroke-miterlimit:10;stroke-dasharray:none;stroke-opacity:1"
           d="m 3731.5,4381.4 0,-123.4" /></g><g
         transform="matrix(0.125,0,0,0.125,453.3125,42.4375)"
         id="g202"><text
           id="text204"
           style="font-variant:normal;font-weight:normal;font-size:160px;font-family:Geneva;-inkscape-font-specification:Geneva;writing-mode:lr-tb;fill:#000000;fill-opacity:1;fill-rule:nonzero;stroke:#000000;stroke-width:3.83999991;stroke-linecap:butt;stroke-linejoin:miter;stroke-miterlimit:10;stroke-dasharray:none;stroke-opacity:1"
           transform="scale(1,-1)"><tspan
             id="tspan206"
             y="0"
             x="0 106.64">10</tspan></text>
</g><g
         transform="matrix(0.125,0,0,-0.125,0.0625,617.9375)"
         id="g208"><path
           id="path210"
           style="fill:none;stroke:#000000;stroke-width:24;stroke-linecap:butt;stroke-linejoin:miter;stroke-miterlimit:10;stroke-dasharray:none;stroke-opacity:1"
           d="m 3155.5,4381.4 0,-123.4" /></g><g
         transform="matrix(0.125,0,0,0.125,387.9375,42.4375)"
         id="g212"><text
           id="text214"
           style="font-variant:normal;font-weight:normal;font-size:160px;font-family:Geneva;-inkscape-font-specification:Geneva;writing-mode:lr-tb;fill:#000000;fill-opacity:1;fill-rule:nonzero;stroke:#000000;stroke-width:3.83999991;stroke-linecap:butt;stroke-linejoin:miter;stroke-miterlimit:10;stroke-dasharray:none;stroke-opacity:1"
           transform="scale(1,-1)"><tspan
             id="tspan216"
             y="0"
             x="0">8</tspan></text>
</g><g
         transform="matrix(0.125,0,0,-0.125,0.0625,617.9375)"
         id="g218"><path
           id="path220"
           style="fill:none;stroke:#000000;stroke-width:24;stroke-linecap:butt;stroke-linejoin:miter;stroke-miterlimit:10;stroke-dasharray:none;stroke-opacity:1"
           d="m 2579.5,4381.4 0,-123.4" /></g><g
         transform="matrix(0.125,0,0,0.125,315.9375,42.4375)"
         id="g222"><text
           id="text224"
           style="font-variant:normal;font-weight:normal;font-size:160px;font-family:Geneva;-inkscape-font-specification:Geneva;writing-mode:lr-tb;fill:#000000;fill-opacity:1;fill-rule:nonzero;stroke:#000000;stroke-width:3.83999991;stroke-linecap:butt;stroke-linejoin:miter;stroke-miterlimit:10;stroke-dasharray:none;stroke-opacity:1"
           transform="scale(1,-1)"><tspan
             id="tspan226"
             y="0"
             x="0">6</tspan></text>
</g><g
         transform="matrix(0.125,0,0,-0.125,0.0625,617.9375)"
         id="g228"><path
           id="path230"
           style="fill:none;stroke:#000000;stroke-width:24;stroke-linecap:butt;stroke-linejoin:miter;stroke-miterlimit:10;stroke-dasharray:none;stroke-opacity:1"
           d="m 2003.5,4381.4 0,-123.4" /></g><g
         transform="matrix(0.125,0,0,0.125,243.9375,42.4375)"
         id="g232"><text
           id="text234"
           style="font-variant:normal;font-weight:normal;font-size:160px;font-family:Geneva;-inkscape-font-specification:Geneva;writing-mode:lr-tb;fill:#000000;fill-opacity:1;fill-rule:nonzero;stroke:#000000;stroke-width:3.83999991;stroke-linecap:butt;stroke-linejoin:miter;stroke-miterlimit:10;stroke-dasharray:none;stroke-opacity:1"
           transform="scale(1,-1)"><tspan
             id="tspan236"
             y="0"
             x="0">4</tspan></text>
</g><g
         transform="matrix(0.125,0,0,-0.125,0.0625,617.9375)"
         id="g238"><path
           id="path240"
           style="fill:none;stroke:#000000;stroke-width:24;stroke-linecap:butt;stroke-linejoin:miter;stroke-miterlimit:10;stroke-dasharray:none;stroke-opacity:1"
           d="m 1427.5,4381.4 0,-123.4" /></g><g
         transform="matrix(0.125,0,0,0.125,171.9375,42.4375)"
         id="g242"><text
           id="text244"
           style="font-variant:normal;font-weight:normal;font-size:160px;font-family:Geneva;-inkscape-font-specification:Geneva;writing-mode:lr-tb;fill:#000000;fill-opacity:1;fill-rule:nonzero;stroke:#000000;stroke-width:3.83999991;stroke-linecap:butt;stroke-linejoin:miter;stroke-miterlimit:10;stroke-dasharray:none;stroke-opacity:1"
           transform="scale(1,-1)"><tspan
             id="tspan246"
             y="0"
             x="0">2</tspan></text>
</g><g
         transform="matrix(0.125,0,0,-0.125,0.0625,617.9375)"
         id="g248"><path
           id="path250"
           style="fill:none;stroke:#000000;stroke-width:24;stroke-linecap:butt;stroke-linejoin:miter;stroke-miterlimit:10;stroke-dasharray:none;stroke-opacity:1"
           d="m 851.5,4381.4 0,-123.4" /></g><g
         transform="matrix(0.125,0,0,0.125,99.9375,42.4375)"
         id="g252"><text
           id="text254"
           style="font-variant:normal;font-weight:normal;font-size:160px;font-family:Geneva;-inkscape-font-specification:Geneva;writing-mode:lr-tb;fill:#000000;fill-opacity:1;fill-rule:nonzero;stroke:#000000;stroke-width:3.83999991;stroke-linecap:butt;stroke-linejoin:miter;stroke-miterlimit:10;stroke-dasharray:none;stroke-opacity:1"
           transform="scale(1,-1)"><tspan
             id="tspan256"
             y="0"
             x="0">0</tspan></text>
</g><g
         transform="matrix(0.125,0,0,0.125,268.6875,7.9375)"
         id="g258"><text
           id="text260"
           style="font-variant:normal;font-weight:normal;font-size:192px;font-family:Geneva;-inkscape-font-specification:Geneva;writing-mode:lr-tb;fill:#000000;fill-opacity:1;fill-rule:nonzero;stroke:#000000;stroke-width:4.6079998;stroke-linecap:butt;stroke-linejoin:miter;stroke-miterlimit:10;stroke-dasharray:none;stroke-opacity:1"
           transform="scale(1,-1)"><tspan
             id="tspan262"
             y="0"
             x="0 110.5344 212.35201 297.4848 408.0192 520.05121 617.83679 662.93762 779.28961 891.32159 955.35358 1061.568 1125.6 1211.3856 1324.8192 1496.4672">Extension z (µm)</tspan></text>
</g><g
         transform="matrix(0.125,0,0,-0.125,0.0625,617.9375)"
         id="g264"><path
           id="path266"
           style="fill:none;stroke:#ff0000;stroke-width:12;stroke-linecap:butt;stroke-linejoin:miter;stroke-miterlimit:10;stroke-dasharray:none;stroke-opacity:1"
           d="m 2395,3315 97,0" /></g><g
         transform="matrix(0.125,0,0,-0.125,0.0625,617.9375)"
         id="g268"><path
           id="path270"
           style="fill:none;stroke:#ff0000;stroke-width:12;stroke-linecap:butt;stroke-linejoin:miter;stroke-miterlimit:10;stroke-dasharray:none;stroke-opacity:1"
           d="m 2395,3403 97,0" /></g><g
         transform="matrix(0.125,0,0,-0.125,0.0625,617.9375)"
         id="g272"><path
           id="path274"
           style="fill:none;stroke:#ff0000;stroke-width:12;stroke-linecap:butt;stroke-linejoin:miter;stroke-miterlimit:10;stroke-dasharray:none;stroke-opacity:1"
           d="m 2443,3315 0,88" /></g><g
         transform="matrix(0.125,0,0,-0.125,0.0625,617.9375)"
         id="g276"><path
           id="path278"
           style="fill:none;stroke:#ff0000;stroke-width:12;stroke-linecap:butt;stroke-linejoin:miter;stroke-miterlimit:10;stroke-dasharray:none;stroke-opacity:1"
           d="m 2965,3012 97,0" /></g><g
         transform="matrix(0.125,0,0,-0.125,0.0625,617.9375)"
         id="g280"><path
           id="path282"
           style="fill:none;stroke:#ff0000;stroke-width:12;stroke-linecap:butt;stroke-linejoin:miter;stroke-miterlimit:10;stroke-dasharray:none;stroke-opacity:1"
           d="m 2965,3088 97,0" /></g><g
         transform="matrix(0.125,0,0,-0.125,0.0625,617.9375)"
         id="g284"><path
           id="path286"
           style="fill:none;stroke:#ff0000;stroke-width:12;stroke-linecap:butt;stroke-linejoin:miter;stroke-miterlimit:10;stroke-dasharray:none;stroke-opacity:1"
           d="m 3013,3012 0,76" /></g><g
         transform="matrix(0.125,0,0,-0.125,0.0625,617.9375)"
         id="g288"><path
           id="path290"
           style="fill:none;stroke:#ff0000;stroke-width:12;stroke-linecap:butt;stroke-linejoin:miter;stroke-miterlimit:10;stroke-dasharray:none;stroke-opacity:1"
           d="m 3395,2775 97,0" /></g><g
         transform="matrix(0.125,0,0,-0.125,0.0625,617.9375)"
         id="g292"><path
           id="path294"
           style="fill:none;stroke:#ff0000;stroke-width:12;stroke-linecap:butt;stroke-linejoin:miter;stroke-miterlimit:10;stroke-dasharray:none;stroke-opacity:1"
           d="m 3395,2884 97,0" /></g><g
         transform="matrix(0.125,0,0,-0.125,0.0625,617.9375)"
         id="g296"><path
           id="path298"
           style="fill:none;stroke:#ff0000;stroke-width:12;stroke-linecap:butt;stroke-linejoin:miter;stroke-miterlimit:10;stroke-dasharray:none;stroke-opacity:1"
           d="m 3443,2775 0,109" /></g><g
         transform="matrix(0.125,0,0,-0.125,0.0625,617.9375)"
         id="g300"><path
           id="path302"
           style="fill:none;stroke:#ff0000;stroke-width:12;stroke-linecap:butt;stroke-linejoin:miter;stroke-miterlimit:10;stroke-dasharray:none;stroke-opacity:1"
           d="m 3695,2596 97,0" /></g><g
         transform="matrix(0.125,0,0,-0.125,0.0625,617.9375)"
         id="g304"><path
           id="path306"
           style="fill:none;stroke:#ff0000;stroke-width:12;stroke-linecap:butt;stroke-linejoin:miter;stroke-miterlimit:10;stroke-dasharray:none;stroke-opacity:1"
           d="m 3695,2680 97,0" /></g><g
         transform="matrix(0.125,0,0,-0.125,0.0625,617.9375)"
         id="g308"><path
           id="path310"
           style="fill:none;stroke:#ff0000;stroke-width:12;stroke-linecap:butt;stroke-linejoin:miter;stroke-miterlimit:10;stroke-dasharray:none;stroke-opacity:1"
           d="m 3743,2596 0,84" /></g><g
         transform="matrix(0.125,0,0,-0.125,0.0625,617.9375)"
         id="g312"><path
           id="path314"
           style="fill:none;stroke:#ff0000;stroke-width:12;stroke-linecap:butt;stroke-linejoin:miter;stroke-miterlimit:10;stroke-dasharray:none;stroke-opacity:1"
           d="m 3994,2328 97,0" /></g><g
         transform="matrix(0.125,0,0,-0.125,0.0625,617.9375)"
         id="g316"><path
           id="path318"
           style="fill:none;stroke:#ff0000;stroke-width:12;stroke-linecap:butt;stroke-linejoin:miter;stroke-miterlimit:10;stroke-dasharray:none;stroke-opacity:1"
           d="m 3994,2438 97,0" /></g><g
         transform="matrix(0.125,0,0,-0.125,0.0625,617.9375)"
         id="g320"><path
           id="path322"
           style="fill:none;stroke:#ff0000;stroke-width:12;stroke-linecap:butt;stroke-linejoin:miter;stroke-miterlimit:10;stroke-dasharray:none;stroke-opacity:1"
           d="m 4042,2328 0,110" /></g><g
         transform="matrix(0.125,0,0,-0.125,0.0625,617.9375)"
         id="g324"><path
           id="path326"
           style="fill:none;stroke:#ff0000;stroke-width:12;stroke-linecap:butt;stroke-linejoin:miter;stroke-miterlimit:10;stroke-dasharray:none;stroke-opacity:1"
           d="m 4191,2203 97,0" /></g><g
         transform="matrix(0.125,0,0,-0.125,0.0625,617.9375)"
         id="g328"><path
           id="path330"
           style="fill:none;stroke:#ff0000;stroke-width:12;stroke-linecap:butt;stroke-linejoin:miter;stroke-miterlimit:10;stroke-dasharray:none;stroke-opacity:1"
           d="m 4191,2304 97,0" /></g><g
         transform="matrix(0.125,0,0,-0.125,0.0625,617.9375)"
         id="g332"><path
           id="path334"
           style="fill:none;stroke:#ff0000;stroke-width:12;stroke-linecap:butt;stroke-linejoin:miter;stroke-miterlimit:10;stroke-dasharray:none;stroke-opacity:1"
           d="m 4239,2203 0,101" /></g><g
         transform="matrix(0.125,0,0,-0.125,0.0625,617.9375)"
         id="g336"><path
           id="path338"
           style="fill:none;stroke:#ff0000;stroke-width:12;stroke-linecap:butt;stroke-linejoin:miter;stroke-miterlimit:10;stroke-dasharray:none;stroke-opacity:1"
           d="m 4365,1922 97,0" /></g><g
         transform="matrix(0.125,0,0,-0.125,0.0625,617.9375)"
         id="g340"><path
           id="path342"
           style="fill:none;stroke:#ff0000;stroke-width:12;stroke-linecap:butt;stroke-linejoin:miter;stroke-miterlimit:10;stroke-dasharray:none;stroke-opacity:1"
           d="m 4365,2065 97,0" /></g><g
         transform="matrix(0.125,0,0,-0.125,0.0625,617.9375)"
         id="g344"><path
           id="path346"
           style="fill:none;stroke:#ff0000;stroke-width:12;stroke-linecap:butt;stroke-linejoin:miter;stroke-miterlimit:10;stroke-dasharray:none;stroke-opacity:1"
           d="m 4413,1922 0,143" /></g><g
         transform="matrix(0.125,0,0,-0.125,0.0625,617.9375)"
         id="g348"><path
           id="path350"
           style="fill:none;stroke:#ff0000;stroke-width:12;stroke-linecap:butt;stroke-linejoin:miter;stroke-miterlimit:10;stroke-dasharray:none;stroke-opacity:1"
           d="m 4501,1789 97,0" /></g><g
         transform="matrix(0.125,0,0,-0.125,0.0625,617.9375)"
         id="g352"><path
           id="path354"
           style="fill:none;stroke:#ff0000;stroke-width:12;stroke-linecap:butt;stroke-linejoin:miter;stroke-miterlimit:10;stroke-dasharray:none;stroke-opacity:1"
           d="m 4501,1886 97,0" /></g><g
         transform="matrix(0.125,0,0,-0.125,0.0625,617.9375)"
         id="g356"><path
           id="path358"
           style="fill:none;stroke:#ff0000;stroke-width:12;stroke-linecap:butt;stroke-linejoin:miter;stroke-miterlimit:10;stroke-dasharray:none;stroke-opacity:1"
           d="m 4549,1789 0,97" /></g><g
         transform="matrix(0.125,0,0,-0.125,0.0625,617.9375)"
         id="g360"><path
           id="path362"
           style="fill:none;stroke:#ff0000;stroke-width:12;stroke-linecap:butt;stroke-linejoin:miter;stroke-miterlimit:10;stroke-dasharray:none;stroke-opacity:1"
           d="m 4628,1630 97,0" /></g><g
         transform="matrix(0.125,0,0,-0.125,0.0625,617.9375)"
         id="g364"><path
           id="path366"
           style="fill:none;stroke:#ff0000;stroke-width:12;stroke-linecap:butt;stroke-linejoin:miter;stroke-miterlimit:10;stroke-dasharray:none;stroke-opacity:1"
           d="m 4628,1722 97,0" /></g><g
         transform="matrix(0.125,0,0,-0.125,0.0625,617.9375)"
         id="g368"><path
           id="path370"
           style="fill:none;stroke:#ff0000;stroke-width:12;stroke-linecap:butt;stroke-linejoin:miter;stroke-miterlimit:10;stroke-dasharray:none;stroke-opacity:1"
           d="m 4676,1630 0,92" /></g><g
         transform="matrix(0.125,0,0,-0.125,0.0625,617.9375)"
         id="g372"><path
           id="path374"
           style="fill:none;stroke:#ff0000;stroke-width:12;stroke-linecap:butt;stroke-linejoin:miter;stroke-miterlimit:10;stroke-dasharray:none;stroke-opacity:1"
           d="m 4727,1408 97,0" /></g><g
         transform="matrix(0.125,0,0,-0.125,0.0625,617.9375)"
         id="g376"><path
           id="path378"
           style="fill:none;stroke:#ff0000;stroke-width:12;stroke-linecap:butt;stroke-linejoin:miter;stroke-miterlimit:10;stroke-dasharray:none;stroke-opacity:1"
           d="m 4727,1475 97,0" /></g><g
         transform="matrix(0.125,0,0,-0.125,0.0625,617.9375)"
         id="g380"><path
           id="path382"
           style="fill:none;stroke:#ff0000;stroke-width:12;stroke-linecap:butt;stroke-linejoin:miter;stroke-miterlimit:10;stroke-dasharray:none;stroke-opacity:1"
           d="m 4775,1408 0,67" /></g><g
         transform="matrix(0.125,0,0,-0.125,0.0625,617.9375)"
         id="g384"><path
           id="path386"
           style="fill:none;stroke:#ff0000;stroke-width:12;stroke-linecap:butt;stroke-linejoin:miter;stroke-miterlimit:10;stroke-dasharray:none;stroke-opacity:1"
           d="m 4803,1219 97,0" /></g><g
         transform="matrix(0.125,0,0,-0.125,0.0625,617.9375)"
         id="g388"><path
           id="path390"
           style="fill:none;stroke:#ff0000;stroke-width:12;stroke-linecap:butt;stroke-linejoin:miter;stroke-miterlimit:10;stroke-dasharray:none;stroke-opacity:1"
           d="m 4803,1324 97,0" /></g><g
         transform="matrix(0.125,0,0,-0.125,0.0625,617.9375)"
         id="g392"><path
           id="path394"
           style="fill:none;stroke:#ff0000;stroke-width:12;stroke-linecap:butt;stroke-linejoin:miter;stroke-miterlimit:10;stroke-dasharray:none;stroke-opacity:1"
           d="m 4851,1219 0,105" /></g><g
         transform="matrix(0.125,0,0,-0.125,0.0625,617.9375)"
         id="g396"><path
           id="path398"
           style="fill:none;stroke:#ff0000;stroke-width:12;stroke-linecap:butt;stroke-linejoin:miter;stroke-miterlimit:10;stroke-dasharray:none;stroke-opacity:1"
           d="m 4888,1068 97,0" /></g><g
         transform="matrix(0.125,0,0,-0.125,0.0625,617.9375)"
         id="g400"><path
           id="path402"
           style="fill:none;stroke:#ff0000;stroke-width:12;stroke-linecap:butt;stroke-linejoin:miter;stroke-miterlimit:10;stroke-dasharray:none;stroke-opacity:1"
           d="m 4888,1156 97,0" /></g><g
         transform="matrix(0.125,0,0,-0.125,0.0625,617.9375)"
         id="g404"><path
           id="path406"
           style="fill:none;stroke:#ff0000;stroke-width:12;stroke-linecap:butt;stroke-linejoin:miter;stroke-miterlimit:10;stroke-dasharray:none;stroke-opacity:1"
           d="m 4936,1068 0,88" /></g><g
         transform="matrix(0.125,0,0,-0.125,0.0625,617.9375)"
         id="g408"><path
           id="path410"
           style="fill:none;stroke:#ff0000;stroke-width:12;stroke-linecap:butt;stroke-linejoin:miter;stroke-miterlimit:10;stroke-dasharray:none;stroke-opacity:1"
           d="m 4963,887 97,0" /></g><g
         transform="matrix(0.125,0,0,-0.125,0.0625,617.9375)"
         id="g412"><path
           id="path414"
           style="fill:none;stroke:#ff0000;stroke-width:12;stroke-linecap:butt;stroke-linejoin:miter;stroke-miterlimit:10;stroke-dasharray:none;stroke-opacity:1"
           d="m 4963,967 97,0" /></g><g
         transform="matrix(0.125,0,0,-0.125,0.0625,617.9375)"
         id="g416"><path
           id="path418"
           style="fill:none;stroke:#ff0000;stroke-width:12;stroke-linecap:butt;stroke-linejoin:miter;stroke-miterlimit:10;stroke-dasharray:none;stroke-opacity:1"
           d="m 5011,887 0,80" /></g><g
         transform="matrix(0.125,0,0,-0.125,0.0625,617.9375)"
         id="g420"><path
           id="path422"
           style="fill:none;stroke:#ff0000;stroke-width:12;stroke-linecap:butt;stroke-linejoin:miter;stroke-miterlimit:10;stroke-dasharray:none;stroke-opacity:1"
           d="m 5021,665 97,0" /></g><g
         transform="matrix(0.125,0,0,-0.125,0.0625,617.9375)"
         id="g424"><path
           id="path426"
           style="fill:none;stroke:#ff0000;stroke-width:12;stroke-linecap:butt;stroke-linejoin:miter;stroke-miterlimit:10;stroke-dasharray:none;stroke-opacity:1"
           d="m 5021,745 97,0" /></g><g
         transform="matrix(0.125,0,0,-0.125,0.0625,617.9375)"
         id="g428"><path
           id="path430"
           style="fill:none;stroke:#ff0000;stroke-width:12;stroke-linecap:butt;stroke-linejoin:miter;stroke-miterlimit:10;stroke-dasharray:none;stroke-opacity:1"
           d="m 5069,665 0,80" /></g><g
         transform="matrix(0.125,0,0,-0.125,0.0625,617.9375)"
         id="g432"><path
           id="path434"
           style="fill:none;stroke:#ff0000;stroke-width:12;stroke-linecap:butt;stroke-linejoin:miter;stroke-miterlimit:10;stroke-dasharray:none;stroke-opacity:1"
           d="m 5078,451 97,0" /></g><g
         transform="matrix(0.125,0,0,-0.125,0.0625,617.9375)"
         id="g436"><path
           id="path438"
           style="fill:none;stroke:#ff0000;stroke-width:12;stroke-linecap:butt;stroke-linejoin:miter;stroke-miterlimit:10;stroke-dasharray:none;stroke-opacity:1"
           d="m 5078,539 97,0" /></g><g
         transform="matrix(0.125,0,0,-0.125,0.0625,617.9375)"
         id="g440"><path
           id="path442"
           style="fill:none;stroke:#ff0000;stroke-width:12;stroke-linecap:butt;stroke-linejoin:miter;stroke-miterlimit:10;stroke-dasharray:none;stroke-opacity:1"
           d="m 5126,451 0,88" /></g><g
         transform="matrix(0.125,0,0,-0.125,0.0625,617.9375)"
         id="g444"><path
           id="path446"
           style="fill:none;stroke:#ff0000;stroke-width:12;stroke-linecap:butt;stroke-linejoin:miter;stroke-miterlimit:10;stroke-dasharray:none;stroke-opacity:1"
           d="m 2417,3357 c 0,-14.3 11.7,-26 26,-26 14.3,0 26,11.7 26,26 0,14.3 -11.7,26 -26,26 -14.3,0 -26,-11.7 -26,-26 z" /></g><g
         transform="matrix(0.125,0,0,-0.125,0.0625,617.9375)"
         id="g448"><path
           id="path450"
           style="fill:none;stroke:#ff0000;stroke-width:12;stroke-linecap:butt;stroke-linejoin:miter;stroke-miterlimit:10;stroke-dasharray:none;stroke-opacity:1"
           d="m 2987,3054 c 0,-14.3 11.7,-26 26,-26 14.3,0 26,11.7 26,26 0,14.3 -11.7,26 -26,26 -14.3,0 -26,-11.7 -26,-26 z" /></g><g
         transform="matrix(0.125,0,0,-0.125,0.0625,617.9375)"
         id="g452"><path
           id="path454"
           style="fill:none;stroke:#ff0000;stroke-width:12;stroke-linecap:butt;stroke-linejoin:miter;stroke-miterlimit:10;stroke-dasharray:none;stroke-opacity:1"
           d="m 3417,2825 c 0,-14.3 11.7,-26 26,-26 14.3,0 26,11.7 26,26 0,14.3 -11.7,26 -26,26 -14.3,0 -26,-11.7 -26,-26 z" /></g><g
         transform="matrix(0.125,0,0,-0.125,0.0625,617.9375)"
         id="g456"><path
           id="path458"
           style="fill:none;stroke:#ff0000;stroke-width:12;stroke-linecap:butt;stroke-linejoin:miter;stroke-miterlimit:10;stroke-dasharray:none;stroke-opacity:1"
           d="m 3717,2646 c 0,-14.3 11.7,-26 26,-26 14.3,0 26,11.7 26,26 0,14.3 -11.7,26 -26,26 -14.3,0 -26,-11.7 -26,-26 z" /></g><g
         transform="matrix(0.125,0,0,-0.125,0.0625,617.9375)"
         id="g460"><path
           id="path462"
           style="fill:none;stroke:#ff0000;stroke-width:12;stroke-linecap:butt;stroke-linejoin:miter;stroke-miterlimit:10;stroke-dasharray:none;stroke-opacity:1"
           d="m 4016,2379 c 0,-14.3 11.7,-26 26,-26 14.3,0 26,11.7 26,26 0,14.3 -11.7,26 -26,26 -14.3,0 -26,-11.7 -26,-26 z" /></g><g
         transform="matrix(0.125,0,0,-0.125,0.0625,617.9375)"
         id="g464"><path
           id="path466"
           style="fill:none;stroke:#ff0000;stroke-width:12;stroke-linecap:butt;stroke-linejoin:miter;stroke-miterlimit:10;stroke-dasharray:none;stroke-opacity:1"
           d="m 4213,2249 c 0,-14.3 11.7,-26 26,-26 14.3,0 26,11.7 26,26 0,14.3 -11.7,26 -26,26 -14.3,0 -26,-11.7 -26,-26 z" /></g><g
         transform="matrix(0.125,0,0,-0.125,0.0625,617.9375)"
         id="g468"><path
           id="path470"
           style="fill:none;stroke:#ff0000;stroke-width:12;stroke-linecap:butt;stroke-linejoin:miter;stroke-miterlimit:10;stroke-dasharray:none;stroke-opacity:1"
           d="m 4387,1994 c 0,-14.3 11.7,-26 26,-26 14.3,0 26,11.7 26,26 0,14.3 -11.7,26 -26,26 -14.3,0 -26,-11.7 -26,-26 z" /></g><g
         transform="matrix(0.125,0,0,-0.125,0.0625,617.9375)"
         id="g472"><path
           id="path474"
           style="fill:none;stroke:#ff0000;stroke-width:12;stroke-linecap:butt;stroke-linejoin:miter;stroke-miterlimit:10;stroke-dasharray:none;stroke-opacity:1"
           d="m 4523,1831 c 0,-14.3 11.7,-26 26,-26 14.3,0 26,11.7 26,26 0,14.3 -11.7,26 -26,26 -14.3,0 -26,-11.7 -26,-26 z" /></g><g
         transform="matrix(0.125,0,0,-0.125,0.0625,617.9375)"
         id="g476"><path
           id="path478"
           style="fill:none;stroke:#ff0000;stroke-width:12;stroke-linecap:butt;stroke-linejoin:miter;stroke-miterlimit:10;stroke-dasharray:none;stroke-opacity:1"
           d="m 4650,1676 c 0,-14.3 11.7,-26 26,-26 14.3,0 26,11.7 26,26 0,14.3 -11.7,26 -26,26 -14.3,0 -26,-11.7 -26,-26 z" /></g><g
         transform="matrix(0.125,0,0,-0.125,0.0625,617.9375)"
         id="g480"><path
           id="path482"
           style="fill:none;stroke:#ff0000;stroke-width:12;stroke-linecap:butt;stroke-linejoin:miter;stroke-miterlimit:10;stroke-dasharray:none;stroke-opacity:1"
           d="m 4749,1437 c 0,-14.3 11.7,-26 26,-26 14.3,0 26,11.7 26,26 0,14.3 -11.7,26 -26,26 -14.3,0 -26,-11.7 -26,-26 z" /></g><g
         transform="matrix(0.125,0,0,-0.125,0.0625,617.9375)"
         id="g484"><path
           id="path486"
           style="fill:none;stroke:#ff0000;stroke-width:12;stroke-linecap:butt;stroke-linejoin:miter;stroke-miterlimit:10;stroke-dasharray:none;stroke-opacity:1"
           d="m 4825,1269 c 0,-14.3 11.7,-26 26,-26 14.3,0 26,11.7 26,26 0,14.3 -11.7,26 -26,26 -14.3,0 -26,-11.7 -26,-26 z" /></g><g
         transform="matrix(0.125,0,0,-0.125,0.0625,617.9375)"
         id="g488"><path
           id="path490"
           style="fill:none;stroke:#ff0000;stroke-width:12;stroke-linecap:butt;stroke-linejoin:miter;stroke-miterlimit:10;stroke-dasharray:none;stroke-opacity:1"
           d="m 4910,1110 c 0,-14.3 11.7,-26 26,-26 14.3,0 26,11.7 26,26 0,14.3 -11.7,26 -26,26 -14.3,0 -26,-11.7 -26,-26 z" /></g><g
         transform="matrix(0.125,0,0,-0.125,0.0625,617.9375)"
         id="g492"><path
           id="path494"
           style="fill:none;stroke:#ff0000;stroke-width:12;stroke-linecap:butt;stroke-linejoin:miter;stroke-miterlimit:10;stroke-dasharray:none;stroke-opacity:1"
           d="m 4985,925 c 0,-14.3 11.7,-26 26,-26 14.3,0 26,11.7 26,26 0,14.3 -11.7,26 -26,26 -14.3,0 -26,-11.7 -26,-26 z" /></g><g
         transform="matrix(0.125,0,0,-0.125,0.0625,617.9375)"
         id="g496"><path
           id="path498"
           style="fill:none;stroke:#ff0000;stroke-width:12;stroke-linecap:butt;stroke-linejoin:miter;stroke-miterlimit:10;stroke-dasharray:none;stroke-opacity:1"
           d="m 5043,707 c 0,-14.2998 11.7,-26 26,-26 14.3,0 26,11.7002 26,26 0,14.2998 -11.7,26 -26,26 -14.3,0 -26,-11.7002 -26,-26 z" /></g><g
         transform="matrix(0.125,0,0,-0.125,0.0625,617.9375)"
         id="g500"><path
           id="path502"
           style="fill:none;stroke:#ff0000;stroke-width:12;stroke-linecap:butt;stroke-linejoin:miter;stroke-miterlimit:10;stroke-dasharray:none;stroke-opacity:1"
           d="m 5100,493 c 0,-14.2998 11.7,-26 26,-26 14.3,0 26,11.7002 26,26 0,14.2998 -11.7,26 -26,26 -14.3,0 -26,-11.7002 -26,-26 z" /></g><g
         transform="matrix(0.125,0,0,-0.125,0.0625,617.9375)"
         id="g504"><path
           id="path506"
           style="fill:none;stroke:#000000;stroke-width:20;stroke-linecap:butt;stroke-linejoin:bevel;stroke-miterlimit:10;stroke-dasharray:none;stroke-opacity:1"
           d="m 1173,4318 53,-82 52,-75 63,-79 67,-76 70,-70 78,-71 82,-66 83,-59 83,-57 83,-55 82,-48 83,-48 83,-47 82,-45 83,-45 72,-35 66,-32 79,-40 82,-39 83,-39 83,-39 82,-38 78,-36 83,-43 87,-38 83,-43 82,-44 83,-45 56,-31 86,-49 70,-43 82,-50 62,-40 72,-50 53,-41 82,-57 83,-65 62,-58 83,-68 61,-58 44,-46 53,-54 80,-86 59,-73 47,-56 53,-73 74,-110 52,-75 56,-113 44,-73 37,-70 31,-69 49,-103 30,-80 30,-82 34,-88 34,-102 27,-92 19,-57 25,-69 17,-85 16,-57 32,-136 25,-85 9,-81" /></g></g></g></svg>
